<mxfile host="65bd71144e">
    <diagram id="uRTVsEWTSE7DBMKxj3CN" name="Page-1">
        <mxGraphModel dx="336" dy="596" grid="1" gridSize="10" guides="1" tooltips="1" connect="1" arrows="1" fold="1" page="1" pageScale="1" pageWidth="850" pageHeight="1100" math="0" shadow="0">
            <root>
                <mxCell id="0"/>
                <mxCell id="1" parent="0"/>
                <mxCell id="2" value="" style="childLayout=tableLayout;recursiveResize=0;shadow=0;fillColor=#6a00ff;strokeColor=#3700CC;fontColor=#ffffff;fontStyle=1" parent="1" vertex="1">
                    <mxGeometry x="80" y="120" width="120" height="80" as="geometry"/>
                </mxCell>
                <mxCell id="3" value="" style="shape=tableRow;horizontal=0;startSize=0;swimlaneHead=0;swimlaneBody=0;top=0;left=0;bottom=0;right=0;dropTarget=0;collapsible=0;recursiveResize=0;expand=0;fontStyle=0;fillColor=none;" parent="2" vertex="1">
                    <mxGeometry width="120" height="27" as="geometry"/>
                </mxCell>
                <mxCell id="4" value="" style="connectable=0;recursiveResize=0;strokeColor=none;fillColor=none;align=center;whiteSpace=wrap;html=1;" parent="3" vertex="1">
                    <mxGeometry width="41" height="27" as="geometry">
                        <mxRectangle width="41" height="27" as="alternateBounds"/>
                    </mxGeometry>
                </mxCell>
                <mxCell id="5" value="" style="connectable=0;recursiveResize=0;strokeColor=none;fillColor=none;align=center;whiteSpace=wrap;html=1;" parent="3" vertex="1">
                    <mxGeometry x="41" width="39" height="27" as="geometry">
                        <mxRectangle width="39" height="27" as="alternateBounds"/>
                    </mxGeometry>
                </mxCell>
                <mxCell id="6" value="" style="connectable=0;recursiveResize=0;strokeColor=none;fillColor=none;align=center;whiteSpace=wrap;html=1;" parent="3" vertex="1">
                    <mxGeometry x="80" width="40" height="27" as="geometry">
                        <mxRectangle width="40" height="27" as="alternateBounds"/>
                    </mxGeometry>
                </mxCell>
                <mxCell id="7" style="shape=tableRow;horizontal=0;startSize=0;swimlaneHead=0;swimlaneBody=0;top=0;left=0;bottom=0;right=0;dropTarget=0;collapsible=0;recursiveResize=0;expand=0;fontStyle=0;fillColor=none;" parent="2" vertex="1">
                    <mxGeometry y="27" width="120" height="26" as="geometry"/>
                </mxCell>
                <mxCell id="8" value="" style="connectable=0;recursiveResize=0;strokeColor=none;fillColor=none;align=center;whiteSpace=wrap;html=1;" parent="7" vertex="1">
                    <mxGeometry width="41" height="26" as="geometry">
                        <mxRectangle width="41" height="26" as="alternateBounds"/>
                    </mxGeometry>
                </mxCell>
                <mxCell id="9" value="&lt;b style=&quot;background-color: initial;&quot;&gt;void&lt;span style=&quot;white-space: pre;&quot;&gt;&#9;&lt;/span&gt;&lt;span style=&quot;white-space: pre;&quot;&gt;&#9;&lt;/span&gt;*s&lt;/b&gt;" style="connectable=0;recursiveResize=0;strokeColor=none;fillColor=none;align=center;whiteSpace=wrap;html=1;" parent="7" vertex="1">
                    <mxGeometry x="41" width="39" height="26" as="geometry">
                        <mxRectangle width="39" height="26" as="alternateBounds"/>
                    </mxGeometry>
                </mxCell>
                <mxCell id="10" value="" style="connectable=0;recursiveResize=0;strokeColor=none;fillColor=none;align=center;whiteSpace=wrap;html=1;" parent="7" vertex="1">
                    <mxGeometry x="80" width="40" height="26" as="geometry">
                        <mxRectangle width="40" height="26" as="alternateBounds"/>
                    </mxGeometry>
                </mxCell>
                <mxCell id="11" style="shape=tableRow;horizontal=0;startSize=0;swimlaneHead=0;swimlaneBody=0;top=0;left=0;bottom=0;right=0;dropTarget=0;collapsible=0;recursiveResize=0;expand=0;fontStyle=0;fillColor=none;" parent="2" vertex="1">
                    <mxGeometry y="53" width="120" height="27" as="geometry"/>
                </mxCell>
                <mxCell id="12" value="" style="connectable=0;recursiveResize=0;strokeColor=none;fillColor=none;align=center;whiteSpace=wrap;html=1;" parent="11" vertex="1">
                    <mxGeometry width="41" height="27" as="geometry">
                        <mxRectangle width="41" height="27" as="alternateBounds"/>
                    </mxGeometry>
                </mxCell>
                <mxCell id="13" value="" style="connectable=0;recursiveResize=0;strokeColor=none;fillColor=none;align=center;whiteSpace=wrap;html=1;" parent="11" vertex="1">
                    <mxGeometry x="41" width="39" height="27" as="geometry">
                        <mxRectangle width="39" height="27" as="alternateBounds"/>
                    </mxGeometry>
                </mxCell>
                <mxCell id="14" value="" style="connectable=0;recursiveResize=0;strokeColor=none;fillColor=none;align=center;whiteSpace=wrap;html=1;" parent="11" vertex="1">
                    <mxGeometry x="80" width="40" height="27" as="geometry">
                        <mxRectangle width="40" height="27" as="alternateBounds"/>
                    </mxGeometry>
                </mxCell>
                <mxCell id="29" value="&lt;b&gt;unsigned char *p;&lt;/b&gt;" style="shape=cylinder3;whiteSpace=wrap;html=1;boundedLbl=1;backgroundOutline=1;size=15;fillColor=#60a917;fontColor=#ffffff;strokeColor=#2D7600;" parent="1" vertex="1">
                    <mxGeometry x="80" y="320" width="120" height="80" as="geometry"/>
                </mxCell>
                <mxCell id="30" value="" style="shape=flexArrow;endArrow=classic;html=1;fillColor=#E6E6E6;exitX=0.5;exitY=0;exitDx=0;exitDy=0;exitPerimeter=0;entryX=0.5;entryY=1;entryDx=0;entryDy=0;" parent="1" source="29" edge="1" target="11">
                    <mxGeometry width="50" height="50" relative="1" as="geometry">
                        <mxPoint x="430" y="390" as="sourcePoint"/>
                        <mxPoint x="160" y="210" as="targetPoint"/>
                    </mxGeometry>
                </mxCell>
                <mxCell id="31" value="*s&lt;span style=&quot;white-space: pre;&quot;&gt;&#9;&lt;/span&gt;copies the type of&lt;span style=&quot;white-space: pre;&quot;&gt;&#9;&lt;/span&gt;*p&lt;br&gt;" style="edgeLabel;html=1;align=center;verticalAlign=middle;resizable=0;points=[];fontColor=#FF3333;labelBackgroundColor=#FFFFFF;" parent="30" vertex="1" connectable="0">
                    <mxGeometry x="0.2158" y="1" relative="1" as="geometry">
                        <mxPoint as="offset"/>
                    </mxGeometry>
                </mxCell>
                <mxCell id="36" value="" style="shape=flexArrow;endArrow=classic;html=1;fontColor=#FF3333;fillColor=#E6E6E6;exitX=1;exitY=0.5;exitDx=0;exitDy=0;" parent="1" source="7" edge="1">
                    <mxGeometry width="50" height="50" relative="1" as="geometry">
                        <mxPoint x="430" y="390" as="sourcePoint"/>
                        <mxPoint x="320" y="160" as="targetPoint"/>
                    </mxGeometry>
                </mxCell>
                <mxCell id="37" value="&lt;b&gt;unsigned char *s;&lt;/b&gt;" style="shape=cylinder3;whiteSpace=wrap;html=1;boundedLbl=1;backgroundOutline=1;size=15;fillColor=#60a917;fontColor=#ffffff;strokeColor=#2D7600;" parent="1" vertex="1">
                    <mxGeometry x="330" y="120" width="120" height="80" as="geometry"/>
                </mxCell>
            </root>
        </mxGraphModel>
    </diagram>
</mxfile>